<?xml version="1.0" encoding="utf-8"?><svg xml:space="preserve" viewBox="0 0 100 100" y="0" x="0" xmlns="http://www.w3.org/2000/svg" id="Layer_1" version="1.1" width="200px" height="200px" xmlns:xlink="http://www.w3.org/1999/xlink" style="width:100%;height:100%;background-size:initial;background-repeat:initial;background-position-y:initial;background-position-x:initial;background-origin:initial;background-image:initial;background-color:rgb(255, 255, 255);background-clip:initial;background-attachment:initial;animation-play-state:paused" ><g class="ldl-scale" style="transform-origin:50% 50%;transform:rotate(0deg) scale(0.8, 0.8);animation-play-state:paused" ><path fill="#f47e5f" d="M45.3 29.1L40.2 31c-.5.2-1.1 0-1.4-.5l5-21.6c-.1-.7.4-1.3 1.1-1.3h10.2c.7 0 1.2.6 1.1 1.3L46 27.8c.1.5-.2 1.1-.7 1.3z" style="fill:rgb(244, 126, 95);animation-play-state:paused" ></path>
<path fill="#e15c64" d="M35.4 32.8l-.7-21.6c-.3-.6-1-.9-1.6-.5l-8.8 5.1c-.6.3-.7 1.1-.3 1.7l6.5 21.2c.5.3 1.1.2 1.5-.2l3.5-4.2c.3-.5.3-1.1-.1-1.5z" style="fill:rgb(225, 92, 100);animation-play-state:paused" ></path>
<path fill="#f7b26a" d="M28.8 42.4L17.4 24c-.5-.4-1.3-.3-1.7.3l-5.1 8.8c-.3.6-.1 1.3.5 1.6l16.2 15.2c.6 0 1.1-.4 1.2-.9l.9-5.4c.2-.5-.1-1.1-.6-1.2z" style="fill:rgb(247, 178, 106);animation-play-state:paused" ></path>
<path fill="#f47e5f" d="M27.8 54l-19-10.2c-.7-.1-1.3.4-1.3 1.1v10.2c0 .7.6 1.2 1.3 1.1l21.6 5c.5-.3.7-.9.5-1.4L29 54.7c-.1-.5-.7-.8-1.2-.7z" style="fill:rgb(244, 126, 95);animation-play-state:paused" ></path>
<path fill="#e15c64" d="M32.8 64.6l-21.6.7c-.6.3-.9 1-.5 1.6l5.1 8.8c.3.6 1.1.7 1.7.3l21.2-6.5c.3-.5.2-1.1-.2-1.5l-4.2-3.5c-.5-.3-1.1-.3-1.5.1z" style="fill:rgb(225, 92, 100);animation-play-state:paused" ></path>
<path fill="#f7b26a" d="M42.4 71.2L24 82.6c-.4.5-.3 1.3.3 1.7l8.8 5.1c.6.3 1.3.1 1.6-.5l15.2-16.2c0-.6-.4-1.1-.9-1.2l-5.4-.9c-.5-.2-1.1.1-1.2.6z" style="fill:rgb(247, 178, 106);animation-play-state:paused" ></path>
<path fill="#f47e5f" d="M54 72.2l-10.2 19c-.1.7.4 1.3 1.1 1.3h10.2c.7 0 1.2-.6 1.1-1.3l5-21.6c-.3-.5-.9-.7-1.4-.5L54.7 71c-.5.1-.8.7-.7 1.2z" style="fill:rgb(244, 126, 95);animation-play-state:paused" ></path>
<path fill="#e15c64" d="M64.6 67.2l.7 21.6c.3.6 1 .9 1.6.5l8.8-5.1c.6-.3.7-1.1.3-1.7l-6.5-21.2c-.5-.3-1.1-.2-1.5.3l-3.5 4.2c-.3.4-.3 1 .1 1.4z" style="fill:rgb(225, 92, 100);animation-play-state:paused" ></path>
<path fill="#f7b26a" d="M71.2 57.6L82.6 76c.5.4 1.3.3 1.7-.3l5.1-8.8c.3-.6.1-1.3-.5-1.6L72.6 50.1c-.6 0-1.1.4-1.2.9l-.9 5.4c-.1.5.2 1.1.7 1.2z" style="fill:rgb(247, 178, 106);animation-play-state:paused" ></path>
<path fill="#f47e5f" d="M72.2 46l19 10.2c.7.1 1.3-.4 1.3-1.1V44.9c0-.7-.6-1.2-1.3-1.1l-21.6-5c-.5.3-.7.9-.5 1.4l1.9 5.1c.1.5.7.8 1.2.7z" style="fill:rgb(244, 126, 95);animation-play-state:paused" ></path>
<path fill="#e15c64" d="M67.2 35.4l21.6-.7c.6-.3.9-1 .5-1.6l-5.1-8.8c-.3-.6-1.1-.7-1.7-.3l-21.2 6.5c-.3.5-.2 1.1.3 1.5l4.2 3.5c.4.3 1 .3 1.4-.1z" style="fill:rgb(225, 92, 100);animation-play-state:paused" ></path>
<path fill="#f7b26a" d="M57.6 28.8L76 17.4c.4-.5.3-1.3-.3-1.7l-8.8-5.1c-.6-.3-1.3-.1-1.6.5L50.1 27.4c0 .6.4 1.1.9 1.2l5.4.9c.5.1 1.1-.2 1.2-.7z" style="fill:rgb(247, 178, 106);animation-play-state:paused" ></path>
<metadata xmlns:d="https://loading.io/stock/" style="animation-play-state:paused" ><d:name style="animation-play-state:paused" >spiral</d:name>


<d:tags style="animation-play-state:paused" >camera,shutter,exposure,aperture,spinner,rotate,spiral</d:tags>


<d:license style="animation-play-state:paused" >by</d:license>


<d:slug style="animation-play-state:paused" >edfsjn</d:slug></metadata></g><!-- generated by https://loading.io/ --></svg>